<?xml version="1.0" encoding="utf-8"?>
<!-- Generator: Adobe Illustrator 16.0.0, SVG Export Plug-In . SVG Version: 6.00 Build 0)  -->
<!DOCTYPE svg PUBLIC "-//W3C//DTD SVG 1.1//EN" "http://www.w3.org/Graphics/SVG/1.1/DTD/svg11.dtd">
<svg version="1.1"
	 id="svg2" xmlns:dc="http://purl.org/dc/elements/1.1/" xmlns:cc="http://web.resource.org/cc/" xmlns:rdf="http://www.w3.org/1999/02/22-rdf-syntax-ns#" xmlns:svg="http://www.w3.org/2000/svg" xmlns:sodipodi="http://sodipodi.sourceforge.net/DTD/sodipodi-0.dtd" xmlns:inkscape="http://www.inkscape.org/namespaces/inkscape" inkscape:output_extension="org.inkscape.output.svg.inkscape" sodipodi:docbase="C:\Documents and Settings\Flanker\Desktop" sodipodi:docname="Card_back_15.svg" inkscape:version="0.45.1" sodipodi:version="0.32"
	 xmlns="http://www.w3.org/2000/svg" xmlns:xlink="http://www.w3.org/1999/xlink" x="0px" y="0px" width="208px" height="303px"
	 viewBox="0 0 208 303" enable-background="new 0 0 208 303" xml:space="preserve">
<sodipodi:namedview  height="303px" inkscape:cy="85.80562" inkscape:cx="361.03375" inkscape:zoom="1.3705286" bordercolor="#666666" borderopacity="1.0" pagecolor="#ffffff" id="base" width="208px" inkscape:showpageshadow="false" inkscape:current-layer="svg2" inkscape:window-y="25" inkscape:window-x="0" inkscape:pageopacity="0.0" inkscape:pageshadow="2" inkscape:window-width="1280" inkscape:window-height="970">
	</sodipodi:namedview>
<g id="g8180" transform="matrix(1,0,0,1.0029796,-8.25e-7,-0.3615258)">
	<path id="path5" fill="#FFFFFF" stroke="#000000" stroke-width="0.4993" d="M207.689,293.598c0,4.701-3.842,8.553-8.553,8.553
		H8.853c-4.699,0-8.542-3.852-8.542-8.553V9.224c0-4.7,3.843-8.553,8.542-8.553h190.284c4.711,0,8.553,3.853,8.553,8.553V293.598
		L207.689,293.598z"/>
	<path id="rect12008" fill="none" stroke="#F7AD00" stroke-width="1.1495" d="M12.486,5.672h183.027c3.713,0,6.723,3.01,6.723,6.722
		v278.033c0,3.713-3.01,6.721-6.723,6.721H12.486c-3.712,0-6.722-3.009-6.722-6.721V12.394C5.764,8.682,8.774,5.672,12.486,5.672z"
		/>
	<path id="rect12010" display="none" fill="#7F0000" d="M14.813,10.915h178.375c2.309,0,4.179,1.871,4.179,4.178v272.633
		c0,2.308-1.87,4.179-4.179,4.179H14.813c-2.308,0-4.179-1.871-4.179-4.179V15.093C10.634,12.786,12.504,10.915,14.813,10.915z"/>
</g>
</svg>
